<?xml version="1.0" encoding="UTF-8" standalone="no" ?>
<!DOCTYPE svg PUBLIC "-//W3C//DTD SVG 1.1//EN" "http://www.w3.org/Graphics/SVG/1.1/DTD/svg11.dtd">
<svg xmlns="http://www.w3.org/2000/svg" xmlns:xlink="http://www.w3.org/1999/xlink" version="1.1" width="64" height="64" viewBox="0 0 64 64" xml:space="preserve">
<desc>Created with Fabric.js 4.6.0</desc>
<defs>
</defs>
<g transform="matrix(1 0 0 1 31.94 32)" id="ijTLNNNi_jYcqM7A8zM_r"  >
<path style="stroke: rgb(24,88,197); stroke-width: 0; stroke-dasharray: none; stroke-linecap: butt; stroke-dashoffset: 0; stroke-linejoin: miter; stroke-miterlimit: 4; fill: rgb(0,0,0); fill-rule: nonzero; opacity: 1;" vector-effect="non-scaling-stroke"  transform=" translate(0, 0)" d="M -32 -26.68029 C -32 -29.61828 -29.618290000000002 -31.99999 -26.6803 -31.99999 L 26.680290000000003 -31.99999 L 26.680290000000003 -31.99999 C 29.618280000000002 -31.99999 31.999990000000004 -29.61828 31.999990000000004 -26.68029 L 31.999990000000004 26.680300000000003 L 31.999990000000004 26.680300000000003 C 31.999990000000004 29.618290000000002 29.618280000000006 32 26.680290000000003 32 L -26.6803 32 L -26.6803 32 C -29.61829 32 -32 29.618290000000002 -32 26.6803 z" stroke-linecap="round" />
</g>
<g transform="matrix(0.12 0 0 0.12 19.75 8.62)" id="9S6XxhLiTjE9wQceHJdSP"  >
<path style="stroke: none; stroke-width: 0; stroke-dasharray: none; stroke-linecap: butt; stroke-dashoffset: 0; stroke-linejoin: miter; stroke-miterlimit: 4; fill: rgb(255,255,255); fill-rule: nonzero; opacity: 1;" vector-effect="non-scaling-stroke"  transform=" translate(-252, -92.96)" d="M 290.64 92.961 C 290.64 114.301 273.339 131.602 251.999 131.602 C 230.659 131.602 213.358 114.301 213.358 92.96100000000001 C 213.358 71.62100000000001 230.659 54.320000000000014 251.999 54.320000000000014 C 273.339 54.320000000000014 290.64 71.62100000000001 290.64 92.96100000000001" stroke-linecap="round" />
</g>
<g transform="matrix(0.12 0 0 0.12 32 32)" id="E6otI7mZ07Ym868TV6XT1"  >
<path style="stroke: none; stroke-width: 0; stroke-dasharray: none; stroke-linecap: butt; stroke-dashoffset: 0; stroke-linejoin: miter; stroke-miterlimit: 4; fill: rgb(255,255,255); fill-rule: nonzero; opacity: 1;" vector-effect="non-scaling-stroke"  transform=" translate(-350, -280)" d="M 520.8 212.8 L 347.76 329.84000000000003 L 314.717 516.88 L 264.31899999999996 507.923 L 302.39699999999993 289.523 L 279.43999999999994 219.52300000000002 L 239.67799999999994 249.20300000000003 L 263.1979999999999 319.20300000000003 L 214.47899999999993 335.44500000000005 L 196.55699999999993 281.68300000000005 L 179.19799999999992 230.16300000000004 L 222.87799999999993 197.68300000000005 L 262.07699999999994 168.00300000000004 L 305.76099999999997 135.52300000000005 L 428.96099999999996 43.12500000000006 L 459.76199999999994 84.56300000000006 L 322.56199999999995 187.04300000000006 L 350.00299999999993 268.80500000000006 L 495.0429999999999 168.00500000000005 z" stroke-linecap="round" />
</g>
</svg>