<?xml version="1.0" encoding="UTF-8" standalone="no" ?>
<!DOCTYPE svg PUBLIC "-//W3C//DTD SVG 1.1//EN" "http://www.w3.org/Graphics/SVG/1.1/DTD/svg11.dtd">
<svg xmlns="http://www.w3.org/2000/svg" xmlns:xlink="http://www.w3.org/1999/xlink" version="1.1" width="64" height="64" viewBox="0 0 64 64" xml:space="preserve">
<desc>Created with Fabric.js 4.6.0</desc>
<defs>
</defs>
<g transform="matrix(1 0 0 1 32 32)" id="oqmzVnCZrc4yEYCfNwX0V"  >
<path style="stroke: rgb(118,104,120); stroke-width: 0; stroke-dasharray: none; stroke-linecap: butt; stroke-dashoffset: 0; stroke-linejoin: miter; stroke-miterlimit: 4; fill: rgb(0,0,0); fill-rule: nonzero; opacity: 1;" vector-effect="non-scaling-stroke"  transform=" translate(-32, -32)" d="M 0 0 L 64 0 L 64 64 L 0 64 z" stroke-linecap="round" />
</g>
<g transform="matrix(0.1 0 0 0.11 21.12 6)" id="cfM7jY-5UGdoffER2nEhN"  >
<path style="stroke: none; stroke-width: 0; stroke-dasharray: none; stroke-linecap: butt; stroke-dashoffset: 0; stroke-linejoin: miter; stroke-miterlimit: 4; fill: rgb(255,255,255); fill-rule: nonzero; opacity: 1;" vector-effect="non-scaling-stroke"  transform=" translate(-242.57, -47.99)" d="M 250.88 0.73047 C 276.985 5.320270000000001 294.423 30.20747 289.829 56.30847 C 285.2392 82.41047 260.35200000000003 99.84747 234.247 95.25347 C 208.145 90.65966999999999 190.70800000000003 65.77646999999999 195.30200000000002 39.67546999999999 C 199.89180000000002 13.57346999999999 224.77900000000002 -3.8635300000000115 250.88000000000002 0.7304699999999897" stroke-linecap="round" />
</g>
<g transform="matrix(0.1 0 0 0.11 24.83 33.67)" id="FvGKvYb24o4s4uinZcD5A"  >
<path style="stroke: none; stroke-width: 0; stroke-dasharray: none; stroke-linecap: butt; stroke-dashoffset: 0; stroke-linejoin: miter; stroke-miterlimit: 4; fill: rgb(255,255,255); fill-rule: nonzero; opacity: 1;" vector-effect="non-scaling-stroke"  transform=" translate(-279.19, -293.61)" d="M 188.02 291.05 C 188.027812 291.057813 188.031718 291.06171900000004 188.039531 291.065625 C 188.637191 291.628125 192.359831 295.315625 195.93793100000002 302.167625 C 199.79343100000003 309.59342499999997 203.691831 320.565625 203.71913100000003 336.804625 C 203.71522500000003 360.347625 195.22693100000004 396.195625 160.84813100000002 446.624625 C 152.539531 458.78862499999997 155.67623100000003 475.38262499999996 167.84033100000002 483.686625 C 172.43803100000002 486.823325 177.672331 488.327225 182.85233100000002 488.327225 C 191.37183100000001 488.327225 199.73933100000002 484.256925 204.903331 476.690225 L 204.899425 476.690225 C 243.571425 420.092225 257.05942500000003 373.600225 257.055425 336.800225 C 257.08276900000004 318.187225 253.555425 302.386225 248.71162500000003 289.687225 L 292.01662500000003 281.542725 L 276.14562500000005 338.636725 C 272.19642500000003 352.824725 280.50502500000005 367.52772500000003 294.6926250000001 371.476725 C 308.88062500000007 375.42202499999996 323.5836250000001 367.117325 327.5366250000001 352.925725 L 354.88062500000007 254.56672500000002 C 357.34152500000005 245.72292500000003 355.03687500000007 236.15272500000003 348.8337250000001 229.386725 C 342.6267250000001 222.62502500000002 333.28672500000005 219.51952500000002 324.2637250000001 221.21482500000002 L 234.05272500000007 238.17582500000003 C 233.19725500000007 221.35582500000004 234.54100500000007 203.92982500000002 236.49412500000005 187.59782500000003 C 227.88472500000006 183.33612500000004 220.64212500000005 178.45332500000004 214.90412500000005 173.89882500000002 C 200.72412500000004 162.66882500000003 192.65812500000004 151.539825 190.52912500000005 148.39482500000003 C 185.34552500000004 140.56672500000002 185.94712500000006 130.68782500000003 191.22053500000004 123.66782500000002 C 192.64243500000003 121.77722500000002 194.38463500000003 120.07802500000003 196.47053500000004 118.69902500000002 C 199.97443500000003 116.38652500000002 204.03303500000004 115.16382500000002 208.21253500000003 115.16382500000002 C 215.36483500000003 115.16382500000002 222.00153500000002 118.71072500000001 225.97053500000004 124.64822500000002 C 226.12287500000005 124.86306500000002 226.32209500000005 125.13650500000003 226.60334500000005 125.51541500000002 C 227.44709500000005 126.63651500000002 228.40804500000004 127.82401500000002 229.43534500000004 129.01541500000002 C 231.87284500000004 131.847415 235.90804500000004 136.117015 241.36934500000004 140.42541500000002 C 241.90450500000003 140.843385 242.43964500000004 141.241825 242.97874500000003 141.644215 C 256.09174500000006 151.484015 270.39274500000005 156.488215 285.51374500000003 156.49221500000002 C 293.205145 156.48049600000002 301.01774500000005 155.20311500000003 309.079745 152.699215 C 315.021145 150.85541500000002 321.095745 148.36721500000002 327.372745 145.128915 C 330.388345 143.570315 333.767245 142.74221500000002 337.15004500000003 142.74221500000002 C 343.95864500000005 142.74221500000002 350.201045 145.95311500000003 354.189045 151.27741500000002 C 354.896075 152.22272500000003 355.55624500000005 153.21101500000003 356.110945 154.28521500000002 C 358.732045 159.34381500000003 359.220345 165.12121500000003 357.493745 170.551215 C 355.759345 175.980915 352.021045 180.41451500000002 346.95874499999996 183.02821500000002 C 337.12674499999997 188.122015 327.30274499999996 192.00871500000002 317.544745 194.69621500000002 C 318.56424499999997 196.00091500000002 319.65414499999997 197.26651500000003 320.82994499999995 198.48141500000003 C 339.227945 217.55541500000004 369.602945 218.10641500000003 388.68894499999993 199.70411500000003 C 407.76294499999995 181.30911500000002 408.31394499999993 150.92711500000001 389.9077449999999 131.84911500000004 C 371.51274499999994 112.77511500000004 341.13074499999993 112.22411500000004 322.0527449999999 130.62641500000004 C 317.7949449999999 134.73191500000004 314.5136449999999 139.45451500000004 312.1074449999999 144.49341500000003 C 302.2519449999999 147.75511500000002 293.4394449999999 149.01681500000004 285.50544499999995 149.02861500000003 C 267.87644499999993 149.02470900000003 253.75544499999995 142.69661500000004 243.05644499999994 135.25161500000004 C 242.24785499999993 118.16161500000004 233.36894499999994 102.29061500000005 218.93944499999995 99.52161500000005 C 200.52144499999994 95.98641500000005 174.68944499999995 107.29891500000005 165.67344499999996 139.07661500000006 C 153.52544499999996 182.84961500000006 151.93944499999995 210.99061500000005 160.03674499999997 258.00661500000007 C 165.22034499999998 278.6046150000001 175.99374499999996 287.51461500000005 188.02074499999998 291.0496150000001 z" stroke-linecap="round" />
</g>
<g transform="matrix(0.1 0 0 0.11 44.22 42.45)" id="eIZ3dcF7Mdf4U2rKP77TR"  >
<path style="stroke: none; stroke-width: 0; stroke-dasharray: none; stroke-linecap: butt; stroke-dashoffset: 0; stroke-linejoin: miter; stroke-miterlimit: 4; fill: rgb(255,255,255); fill-rule: nonzero; opacity: 1;" vector-effect="non-scaling-stroke"  transform=" translate(-470.73, -371.62)" d="M 412.75 248.94 C 415.1875 251.6509 417.7773 254.4986 420.4688 257.4517 C 420.5313 256.51811000000004 420.56645599999996 255.5689 420.57036 254.5962 C 420.67583 243.24120000000002 415.78916 231.8582 414.69146 229.8032 C 414.61724200000003 229.68211 414.55474 229.56101 414.48834 229.43211 C 409.03524 219.05311 412.84384 206.28411 422.99224 200.68610999999999 C 426.14454 198.95560999999998 429.70313999999996 198.03381 433.27324 198.03381 C 441.05054 198.03381 448.21824 202.26820999999998 451.97224 209.07681 L 452.023022 209.174466 L 452.09724 209.322906 L 452.28474 209.69009599999998 C 459.23784 223.20209599999998 463.12074 239.14709599999998 463.22274 254.585096 C 463.25399 264.82309599999996 461.36334 279.815096 452.63674 294.855096 C 462.13284 307.15209600000003 470.83574 320.300096 477.08574 333.886096 C 475.08574 338.69079600000003 472.98413999999997 343.991096 470.87484 349.781096 C 461.44124 375.820096 451.74184 411.058096 451.68684 449.593096 C 451.65168400000005 481.734096 458.74154000000004 516.773096 479.84684000000004 548.198096 C 484.99134000000004 555.8621959999999 493.42484 560.0030959999999 502.01084000000003 560.0030959999999 C 507.12414 560.0030959999999 512.2878400000001 558.5342959999999 516.8548400000001 555.4718959999999 C 529.08184 547.2609959999999 532.3388400000001 530.6948959999999 524.1243400000001 518.4678959999999 L 524.1243400000001 518.4639899999999 C 510.28834000000006 497.84698999999983 505.0543400000001 474.25698999999986 505.01934000000006 449.59698999999983 C 504.96465200000006 420.27698999999984 512.8435400000001 390.2729899999998 520.9883400000001 368.03098999999986 C 525.0391400000001 356.90598999999986 529.1055400000001 347.7029899999999 532.1013400000002 341.4099899999999 C 532.2927500000002 341.0076499999999 532.4646200000002 340.65607999999986 532.6443100000001 340.2810899999999 C 543.0313100000001 330.4060899999999 549.4683100000001 316.1250899999999 541.1834100000001 293.1790899999999 C 521.61341 249.66708999999992 504.5664100000001 227.2180899999999 470.0274100000001 197.7140899999999 C 444.7894100000001 176.4090899999999 417.0504100000001 181.4640899999999 403.7504100000001 194.6984899999999 C 390.4414100000001 207.9364899999999 396.6098100000001 233.8584899999999 412.7504100000001 248.9404899999999 z" stroke-linecap="round" />
</g>
<g transform="matrix(0.1 0 0 0.11 38.96 30.72)" id="Zd9ZuwFH0SRmsJeSSTZUf"  >
<path style="stroke: none; stroke-width: 0; stroke-dasharray: none; stroke-linecap: butt; stroke-dashoffset: 0; stroke-linejoin: miter; stroke-miterlimit: 4; fill: rgb(255,255,255); fill-rule: nonzero; opacity: 1;" vector-effect="non-scaling-stroke"  transform=" translate(-418.81, -267.41)" d="M 448.25 211.13 C 443.7031 202.88 433.324 199.876 425.066 204.4191 C 416.83939999999996 208.9543 413.828 219.2781 418.316 227.52409999999998 L 418.312094 227.52800599999998 L 418.351156 227.60613099999998 L 418.358969 227.60613099999998 C 418.355062 227.60613099999998 418.355062 227.60222499999998 418.355062 227.60222499999998 L 418.358969 227.59831799999998 C 419.023029 228.74281799999997 424.964469 241.30131799999998 424.839469 254.606318 C 424.82775 256.950118 424.648059 259.293818 424.292589 261.633618 C 423.495719 266.879718 421.730089 272.106618 418.386389 277.289618 C 413.511389 284.75441800000004 405.042389 292.746618 388.90938900000003 299.801618 C 380.26488900000004 303.559418 376.30738900000006 313.61361800000003 380.06558900000005 322.258618 C 382.85858900000005 328.68831800000004 389.135889 332.52461800000003 395.72558900000007 332.52461800000003 C 397.99898900000005 332.52461800000003 400.30758900000006 332.06758800000006 402.52638900000005 331.10271800000004 C 423.45638900000006 322.044118 438.08138900000006 309.723718 447.03438900000003 295.85671800000006 C 448.03438900000003 294.3215180000001 448.944589 292.77471800000006 449.79998900000004 291.22001800000004 C 456.647689 278.76301800000005 459.00698900000003 265.83301800000004 458.975789 254.60701800000004 C 458.807819 229.99401800000004 448.881789 212.49801800000003 448.24878900000004 211.13001800000004 z" stroke-linecap="round" />
</g>
<g transform="matrix(0.1 0 0 0.11 24.17 18.54)" id="tJAtgu_aNfA14_-4dw1x7"  >
<path style="stroke: none; stroke-width: 0; stroke-dasharray: none; stroke-linecap: butt; stroke-dashoffset: 0; stroke-linejoin: miter; stroke-miterlimit: 4; fill: rgb(255,255,255); fill-rule: nonzero; opacity: 1;" vector-effect="non-scaling-stroke"  transform=" translate(-272.7, -157.17)" d="M 353.17 158.21 C 352.92781 157.54594 352.65438 156.8897 352.32234 156.2491 C 347.99424 147.8741 337.69734 144.6011 329.33034 148.9249 C 321.71704 152.8468 314.64633999999995 155.6163 308.05733999999995 157.4874 C 299.82293999999996 159.8272 292.34234 160.76080000000002 285.51433999999995 160.76860000000002 C 267.51433999999995 160.76469400000002 253.18233999999995 154.16310000000001 242.40133999999995 146.51460000000003 C 241.13183999999995 145.61616000000004 239.90133999999995 144.70210000000003 238.72943999999995 143.78020000000004 C 233.22943999999995 139.43640000000005 228.98333999999994 135.03020000000004 226.21743999999995 131.81520000000003 C 224.83463999999995 130.21360000000004 223.81513999999996 128.90500000000003 223.18223999999995 128.06520000000003 C 222.86973999999995 127.64332000000003 222.65098999999995 127.33864000000003 222.53379999999996 127.17067000000003 C 222.48301899999996 127.09645100000003 222.44786299999996 127.04958000000003 222.43614399999996 127.03005000000003 L 222.43614399999996 127.02614400000003 C 222.43223799999996 127.02223700000003 222.43223799999996 127.02223700000003 222.43223799999996 127.02223700000003 L 222.42833199999995 127.02614400000003 C 217.21353199999996 119.22534400000004 206.66633199999995 117.09254400000003 198.83033199999994 122.26834400000003 C 195.66623199999995 124.36214400000003 193.43973199999994 127.33474400000003 192.22873199999995 130.64724400000003 C 190.43573199999994 135.56134400000002 190.89673199999996 141.22524400000003 194.00213199999996 145.92024400000003 L 194.00213199999996 145.91633700000003 C 194.67791199999996 146.90461700000003 202.42793199999997 158.57233700000003 217.55713199999997 170.56433700000002 C 223.01413199999996 174.89243700000003 229.54113199999998 179.27523700000003 237.05713199999997 183.115337 C 250.24813199999997 189.857537 266.49813199999994 194.900337 285.506132 194.900337 L 285.638942 194.900337 C 294.892842 194.900337 304.685942 193.665937 314.90894199999997 190.982337 C 324.588642 188.443237 334.64694199999997 184.603437 344.994942 179.244337 C 352.729342 175.248237 356.099942 166.166337 353.17074199999996 158.209337 z" stroke-linecap="round" />
</g>
</svg>